<svg xmlns="http://www.w3.org/2000/svg" viewBox="0 0 32 40" fill="none" x="0px" y="0px"><path fill-rule="evenodd" clip-rule="evenodd" d="M5 3C5 2.44772 5.44772 2 6 2H20C20.2652 2 20.5196 2.10536 20.7071 2.29289L26.7071 8.29289C26.8946 8.48043 27 8.73478 27 9V29C27 29.5523 26.5523 30 26 30H6C5.44772 30 5 29.5523 5 29V3ZM7 4V28H25V10H20C19.4477 10 19 9.55228 19 9V4H7ZM21 5.41421L23.5858 8H21V5.41421ZM22 17H10V15H22V17ZM10 23H22V21H10V23Z" fill="black"/><text x="0" y="47" fill="#000000" font-size="5px" font-weight="bold" font-family="'Helvetica Neue', Helvetica, Arial-Unicode, Arial, Sans-serif">Created by Rahmat Hamid</text><text x="0" y="52" fill="#000000" font-size="5px" font-weight="bold" font-family="'Helvetica Neue', Helvetica, Arial-Unicode, Arial, Sans-serif">from the Noun Project</text></svg>