<svg xmlns="http://www.w3.org/2000/svg" viewBox="0 0 74.95 64.4" x="0px" y="0px"><title>ROCK1</title><g data-name="Layer 2"><g data-name="Layer 1"><path d="M73.4,18.1A19.46,19.46,0,0,1,70,15.18c-1.51-1.6-2.86-3.33-4.31-5A86.1,86.1,0,0,0,57,1.34,5.1,5.1,0,0,0,52.72.06c-2.17.32-4.35.56-6.53.78a64.92,64.92,0,0,0-23,6.26A22.31,22.31,0,0,0,18,10.74c-1.67,1.56-3.31,3.16-4.88,4.82A68.16,68.16,0,0,0,2.35,30C1.71,31.21,1.25,32.5.6,33.68c-.83,1.54-.86,2,.3,3.38,2.39,2.79,4.77,5.59,7.26,8.29a27.13,27.13,0,0,1,2.28,2.83,1.76,1.76,0,0,0,1.49.83c1.67.11,3.34.32,5,.44,5.16.36,10.33.69,14.8,1,4.25,0,7.8,0,11.35,0,3.73.06,7.39,1,11.14.91a2.72,2.72,0,0,1,.56.09,2.15,2.15,0,0,0,1.86-.35,3.73,3.73,0,0,1,.88-.41c3.28-1.34,6.56-2.67,9.84-4a20.25,20.25,0,0,1,2.32-1,2.81,2.81,0,0,0,2.12-2.31,89.42,89.42,0,0,0,2.45-13.06c.37-3.1.47-6.23.67-9.34A3,3,0,0,0,73.4,18.1ZM20.27,11.75a5.55,5.55,0,0,1-.18.92c-.4.9-.85,1.77-1.22,2.67a1.67,1.67,0,0,1-1.29,1.13c-.77.16-1.52.37-2.3.56Zm-5.94,6.77a30.64,30.64,0,0,0,3.09-.71l.11.35-5.37,2.18C12.71,19.17,13.29,18.64,14.33,18.52Zm-1.9,3A37,37,0,0,0,17,19.84a2,2,0,0,1-1.24,2.21c-2.23,1-4.41,2.2-6.61,3.3-.36.17-.74.29-1.41.55C9.06,23.86,10.08,22,12.43,21.48ZM7.89,27.13c2.26-.86,4.42-2,6.62-3L16,23.41c0,.79,0,1.41,0,2s-.47.63-.86.77c-1.53.56-3.07,1.09-4.59,1.68s-2.75,1.16-4.12,1.73c-.38.15-.76.28-1.37.5A4.26,4.26,0,0,1,7.89,27.13Zm-3.4,4.4c3.61-1.34,7.24-2.65,10.85-4a1.85,1.85,0,0,1,2.39.72,43.63,43.63,0,0,1-7,2.35c-2.31.69-4.61,1.4-7.07,2.15A1.21,1.21,0,0,1,4.49,31.53ZM2.57,34.88A9.76,9.76,0,0,1,4.07,34c1.4-.52,2.81-1,4.23-1.43L18.68,29.3c1-.31,1-.31,2,.62-.94.28-1.81.59-2.7.81A51.58,51.58,0,0,0,5.36,35.58l-.5.25C3.5,36.48,3.43,36.46,2.57,34.88Zm2,2.47c.25-.16.5-.33.77-.48,5.22-2.78,10.88-4.33,16.53-5.94,1-.28,1.42.36,2,.93a4.64,4.64,0,0,1-.52.33c-2.46,1-4.91,2-7.4,2.92-2.14.77-4.34,1.39-6.52,2-1.12.33-2.27.54-3.38.87A1.06,1.06,0,0,1,4.59,37.35Zm3,3.61-1.38-1.6c.6-.17,1-.33,1.45-.41a52.24,52.24,0,0,0,11.82-3.73c1.61-.73,3.31-1.25,5-1.82.39-.14.86-.44,1.39.18a38.09,38.09,0,0,1-6.33,2.93c-2.81.81-5.59,1.75-8.35,2.73A39.38,39.38,0,0,0,7.57,41ZM21.5,47.55a5.61,5.61,0,0,1-1.4-.28,13.19,13.19,0,0,1,4.09-1.71C23.38,47.61,23.24,47.7,21.5,47.55Zm3.14-3.69c-2.38.93-4.74,1.92-7.1,2.88-1.74.7-3.49.22-5.23,0-.17,0-.31-.39-.65-.84l14-3.53A1.48,1.48,0,0,1,24.64,43.86Zm.9-3a3.69,3.69,0,0,1-.64.22c-2.66.69-5.32,1.41-8,2.16-1.88.52-3.73,1.12-5.8,1.75L10,43.6c.44-.16.72-.27,1-.36,1.15-.39,2.32-.72,3.44-1.17a100.38,100.38,0,0,1,11.82-3.92c.27-.08.53-.17.79-.27l.73-.28s0,0,0-.06l0,0,0,0h0a3.09,3.09,0,0,0,0-.58c-.08-.48-.33-.54-1-.38-1.36.35-2.72.7-4,1.16-3.39,1.18-6.75,2.43-10.12,3.64-.92.33-1.84.67-2.78,1-.41.13-.92.35-1.27-.42a9.65,9.65,0,0,1,1.26-.7c2.66-1,5.28-2.14,8-2.85A37.31,37.31,0,0,0,26.26,35l.62-.33c.47.55,1,1.08,1.41,1.67a1.14,1.14,0,0,1,.2.42c.09.38-.15.66-.67.8h0v0l-.05,0A4.06,4.06,0,0,1,25.54,40.84Zm46.23-9c-.48,3.36-1.29,6.68-1.93,10a2.07,2.07,0,0,1-1.45,1.66c-2.68,1.07-5.29,2.35-8,3.4a30,30,0,0,1-5.72,1.77,16.65,16.65,0,0,1-4.88-.08,72.25,72.25,0,0,0-10.6-.72c-3.49,0-7,0-10.49,0-.55,0-1.1-.09-1.95-.16.6-1.44,1.08-2.65,1.62-3.82.62-1.36,1.33-2.68,2-4a5.08,5.08,0,0,0-.79-6.08A28.26,28.26,0,0,0,22.8,28l-3.5-2a1.92,1.92,0,0,1-1.09-2.29,26.56,26.56,0,0,1,2.33-7.14,24.69,24.69,0,0,0,1.64-4.42,5.31,5.31,0,0,1,3.26-3.48A63.89,63.89,0,0,1,45.5,3.4c2.41-.28,4.83-.51,7.23-.83a3.14,3.14,0,0,1,2.83.82C58.2,6,60.88,8.62,63.45,11.32c1.7,1.79,3.18,3.79,4.86,5.6a29.38,29.38,0,0,0,3.51,3.18,1.83,1.83,0,0,1,.86,1.75C72.38,25.19,72.24,28.55,71.77,31.87Z"/></g></g><text x="0" y="66.52000000000001" fill="#000000" font-size="0px" font-weight="bold" font-family="'Helvetica Neue', Helvetica, Arial-Unicode, Arial, Sans-serif">Created by Dong Ik Seo</text><text x="0" y="71.52000000000001" fill="#000000" font-size="5px" font-weight="bold" font-family="'Helvetica Neue', Helvetica, Arial-Unicode, Arial, Sans-serif"></text></svg>