<svg xmlns="http://www.w3.org/2000/svg" xmlns:xlink="http://www.w3.org/1999/xlink" version="1.1" x="0px" y="0px" viewBox="0 0 512 640" enable-background="new 0 0 512 512" xml:space="preserve"><g><polygon points="0.011,376.293 79.523,397.824 228.688,313.076 169.082,278.672  "/><path d="M467.676,301.357c-4.345-3.063-9.845-6.25-16.28-9.404c-0.313-0.125-0.609-0.281-0.906-0.438   c-10.546-5.063-23.78-10.47-38.342-12.75c-28.154-4.438-45.606-7.22-61.997-10.875l-20.938-11.907l20.938-11.89   c16.391-3.672,33.843-6.453,61.997-10.89c14.562-2.281,27.796-7.687,38.342-12.75c0.297-0.125,0.594-0.281,0.906-0.438   c6.438-3.156,11.938-6.344,16.28-9.406c41.48-28.499,56.605-81.091,33.45-121.183c-15.687-27.155-45.123-41.999-76.59-41.999   c-17.606,0-35.874,4.64-52.686,14.375c-43.248,24.938-62.106,74.7-45.687,115.527c0.78,1.344,1.22,2.906,1.22,4.578   c0,3.969-2.438,7.343-5.892,8.765l0,0l-53.17,30.718L79.523,114.147L0.011,135.709l321.485,185.587v0.031   c3.453,1.405,5.892,4.78,5.892,8.75c0,1.655-0.438,3.219-1.22,4.563c-16.422,40.842,2.438,90.59,45.687,115.526   c16.812,9.749,35.077,14.405,52.686,14.405c31.468,0,60.903-14.874,76.59-42.03C524.283,382.449,509.158,329.857,467.676,301.357z    M362.072,131.037c4.703-14.515,15.141-27.015,29.42-35.265c10.313-5.937,21.702-9.093,33.046-9.093   c18.577,0,34.498,8.359,42.575,22.374c6.219,10.75,7.313,23.858,3.078,36.905c-4.688,14.499-15.124,26.999-29.404,35.249   c-10.297,5.937-21.731,9.109-33.062,9.109l0,0c-18.577,0-34.498-8.375-42.575-22.39   C358.963,157.192,357.854,144.083,362.072,131.037z M268.857,269.047c-8.482,0-15.374-6.875-15.374-15.358   c0-8.484,6.892-15.359,15.374-15.359c8.484,0,15.344,6.875,15.344,15.359C284.201,262.172,277.342,269.047,268.857,269.047z    M467.113,402.917c-8.077,14.03-23.998,22.374-42.575,22.374c-11.344,0-22.731-3.156-33.046-9.093   c-14.279-8.221-24.717-20.749-29.42-35.249c-4.219-13.063-3.109-26.155,3.078-36.904c8.077-14,23.998-22.375,42.575-22.375l0,0   c11.328,0,22.765,3.156,33.062,9.125c14.28,8.219,24.72,20.719,29.404,35.217C474.426,379.074,473.332,392.168,467.113,402.917z"/></g><text x="0" y="527" fill="#000000" font-size="5px" font-weight="bold" font-family="'Helvetica Neue', Helvetica, Arial-Unicode, Arial, Sans-serif"></text><text x="0" y="532" fill="#000000" font-size="0px" font-weight="bold" font-family="'Helvetica Neue', Helvetica, Arial-Unicode, Arial, Sans-serif"></text></svg>